ETBook-BoldLF.ufo
<glyph name="three" format="2">
  <advance width="489"/>
  <unicode hex="0033"/>
  <outline>
    <contour>
      <point x="342" y="391" type="curve"/>
      <point x="337" y="393"/>
      <point x="336" y="396"/>
      <point x="340" y="399" type="curve" smooth="yes"/>
      <point x="380" y="430"/>
      <point x="402" y="474"/>
      <point x="402" y="516" type="curve" smooth="yes"/>
      <point x="402" y="589"/>
      <point x="337" y="640"/>
      <point x="259" y="640" type="curve" smooth="yes"/>
      <point x="179" y="640"/>
      <point x="106" y="586"/>
      <point x="68" y="499" type="curve" smooth="yes"/>
      <point x="61" y="483"/>
      <point x="70" y="473"/>
      <point x="83" y="467" type="curve"/>
      <point x="92" y="464"/>
      <point x="108" y="462"/>
      <point x="116" y="476" type="curve" smooth="yes"/>
      <point x="145" y="528"/>
      <point x="189" y="557"/>
      <point x="226" y="557" type="curve" smooth="yes"/>
      <point x="269" y="557"/>
      <point x="301" y="524"/>
      <point x="301" y="485" type="curve" smooth="yes"/>
      <point x="301" y="463"/>
      <point x="292" y="439"/>
      <point x="261" y="407" type="curve" smooth="yes"/>
      <point x="236" y="382"/>
      <point x="211" y="362"/>
      <point x="183" y="341" type="curve"/>
      <point x="176" y="335"/>
      <point x="169" y="319"/>
      <point x="178" y="306" type="curve" smooth="yes"/>
      <point x="187" y="294"/>
      <point x="206" y="293"/>
      <point x="217" y="301" type="curve" smooth="yes"/>
      <point x="234" y="313"/>
      <point x="249" y="314"/>
      <point x="264" y="314" type="curve" smooth="yes"/>
      <point x="308" y="314"/>
      <point x="340" y="271"/>
      <point x="340" y="199" type="curve" smooth="yes"/>
      <point x="340" y="109"/>
      <point x="291" y="44"/>
      <point x="230" y="44" type="curve" smooth="yes"/>
      <point x="206" y="44"/>
      <point x="191" y="48"/>
      <point x="152" y="81" type="curve" smooth="yes"/>
      <point x="133" y="96"/>
      <point x="110" y="117"/>
      <point x="84" y="117" type="curve" smooth="yes"/>
      <point x="58" y="117"/>
      <point x="36" y="93"/>
      <point x="36" y="68" type="curve" smooth="yes"/>
      <point x="36" y="12"/>
      <point x="124" y="-18"/>
      <point x="198" y="-18" type="curve" smooth="yes"/>
      <point x="335" y="-18"/>
      <point x="453" y="95"/>
      <point x="453" y="223" type="curve" smooth="yes"/>
      <point x="453" y="301"/>
      <point x="409" y="370"/>
    </contour>
  </outline>
</glyph>
<glyph name="five" format="2">
  <advance width="489"/>
  <unicode hex="0035"/>
  <outline>
    <contour>
      <point x="164" y="408" type="curve" smooth="yes"/>
      <point x="158" y="406"/>
      <point x="155" y="410"/>
      <point x="155" y="414" type="curve"/>
      <point x="162" y="522" type="line"/>
      <point x="163" y="527"/>
      <point x="168" y="530"/>
      <point x="173" y="531" type="curve"/>
      <point x="348" y="528" type="line"/>
      <point x="376" y="531"/>
      <point x="374" y="535"/>
      <point x="382" y="554" type="curve"/>
      <point x="390" y="610" type="line" smooth="yes"/>
      <point x="392" y="626"/>
      <point x="389" y="640"/>
      <point x="375" y="640" type="curve" smooth="yes"/>
      <point x="357" y="640" type="line" smooth="yes"/>
      <point x="343" y="640"/>
      <point x="347" y="627"/>
      <point x="329" y="625" type="curve"/>
      <point x="321" y="625"/>
      <point x="311" y="625"/>
      <point x="298" y="625" type="curve" smooth="yes"/>
      <point x="160" y="627" type="line" smooth="yes"/>
      <point x="141" y="628"/>
      <point x="107" y="621"/>
      <point x="105" y="595" type="curve" smooth="yes"/>
      <point x="85" y="321" type="line" smooth="yes"/>
      <point x="84" y="306"/>
      <point x="86" y="299"/>
      <point x="98" y="290" type="curve"/>
      <point x="108" y="284"/>
      <point x="118" y="287"/>
      <point x="125" y="291" type="curve" smooth="yes"/>
      <point x="155" y="309"/>
      <point x="172" y="318"/>
      <point x="207" y="318" type="curve" smooth="yes"/>
      <point x="276" y="318"/>
      <point x="321" y="266"/>
      <point x="321" y="185" type="curve" smooth="yes"/>
      <point x="321" y="102"/>
      <point x="275" y="40"/>
      <point x="219" y="40" type="curve" smooth="yes"/>
      <point x="205" y="40"/>
      <point x="199" y="42"/>
      <point x="188" y="51" type="curve"/>
      <point x="164" y="73"/>
      <point x="136" y="107"/>
      <point x="99" y="107" type="curve" smooth="yes"/>
      <point x="72" y="107"/>
      <point x="50" y="85"/>
      <point x="50" y="58" type="curve" smooth="yes"/>
      <point x="50" y="6"/>
      <point x="124" y="-18"/>
      <point x="197" y="-18" type="curve" smooth="yes"/>
      <point x="332" y="-18"/>
      <point x="429" y="82"/>
      <point x="429" y="207" type="curve" smooth="yes"/>
      <point x="429" y="324"/>
      <point x="341" y="416"/>
      <point x="224" y="416" type="curve" smooth="yes"/>
      <point x="200" y="416"/>
      <point x="183" y="414"/>
    </contour>
  </outline>
</glyph>
<glyph name="six" format="2">
  <advance width="489"/>
  <unicode hex="0036"/>
  <outline>
    <contour>
      <point x="180" y="367" type="curve"/>
      <point x="176" y="365"/>
      <point x="175" y="370"/>
      <point x="176" y="377" type="curve"/>
      <point x="203" y="474"/>
      <point x="263" y="537"/>
      <point x="383" y="589" type="curve" smooth="yes"/>
      <point x="394" y="594"/>
      <point x="404" y="608"/>
      <point x="397" y="621" type="curve"/>
      <point x="392" y="628" type="line"/>
      <point x="385" y="641"/>
      <point x="368" y="639"/>
      <point x="360" y="637" type="curve"/>
      <point x="160" y="575"/>
      <point x="42" y="429"/>
      <point x="42" y="248" type="curve" smooth="yes"/>
      <point x="42" y="97"/>
      <point x="120" y="-18"/>
      <point x="251" y="-18" type="curve" smooth="yes"/>
      <point x="365" y="-18"/>
      <point x="447" y="79"/>
      <point x="447" y="193" type="curve" smooth="yes"/>
      <point x="447" y="298"/>
      <point x="373" y="386"/>
      <point x="268" y="386" type="curve" smooth="yes"/>
      <point x="242" y="386"/>
      <point x="209" y="385"/>
    </contour>
    <contour>
      <point x="254" y="329" type="curve" smooth="yes"/>
      <point x="305" y="329"/>
      <point x="339" y="281"/>
      <point x="339" y="183" type="curve" smooth="yes"/>
      <point x="339" y="81"/>
      <point x="306" y="33"/>
      <point x="253" y="33" type="curve" smooth="yes"/>
      <point x="190" y="33"/>
      <point x="150" y="97"/>
      <point x="150" y="228" type="curve" smooth="yes"/>
      <point x="150" y="242"/>
      <point x="148" y="275"/>
      <point x="161" y="284" type="curve" smooth="yes"/>
      <point x="203" y="316"/>
      <point x="227" y="329"/>
    </contour>
  </outline>
</glyph>
<glyph name="seven" format="2">
  <advance width="489"/>
  <unicode hex="0037"/>
  <outline>
    <contour>
      <point x="427" y="575" type="line"/>
      <point x="428" y="591" type="line" smooth="yes"/>
      <point x="429" y="612"/>
      <point x="409" y="624"/>
      <point x="392" y="624" type="curve" smooth="yes"/>
      <point x="266" y="621"/>
      <point x="160" y="620"/>
      <point x="79" y="624" type="curve" smooth="yes"/>
      <point x="58" y="625"/>
      <point x="34" y="600"/>
      <point x="33" y="583" type="curve" smooth="yes"/>
      <point x="28" y="495" type="line" smooth="yes"/>
      <point x="27" y="483"/>
      <point x="37" y="473"/>
      <point x="52" y="473" type="curve" smooth="yes"/>
      <point x="89" y="473"/>
      <point x="77" y="515"/>
      <point x="88" y="524" type="curve"/>
      <point x="90" y="525"/>
      <point x="91" y="526"/>
      <point x="96" y="526" type="curve"/>
      <point x="102" y="527"/>
      <point x="113" y="526"/>
      <point x="133" y="526" type="curve" smooth="yes"/>
      <point x="168" y="526"/>
      <point x="226" y="524"/>
      <point x="319" y="528" type="curve" smooth="yes"/>
      <point x="326" y="528"/>
      <point x="329" y="524"/>
      <point x="328" y="523" type="curve"/>
      <point x="112" y="23" type="line" smooth="yes"/>
      <point x="107" y="10"/>
      <point x="109" y="-10"/>
      <point x="130" y="-13" type="curve" smooth="yes"/>
      <point x="143" y="-15"/>
      <point x="155" y="-18"/>
      <point x="168" y="-18" type="curve" smooth="yes"/>
      <point x="181" y="-18"/>
      <point x="195" y="-14"/>
      <point x="202" y="2" type="curve" smooth="yes"/>
    </contour>
  </outline>
</glyph>
<glyph name="nine" format="2">
  <advance width="489"/>
  <unicode hex="0039"/>
  <outline>
    <contour>
      <point x="318" y="258" type="curve"/>
      <point x="325" y="261"/>
      <point x="326" y="255"/>
      <point x="325" y="248" type="curve"/>
      <point x="314" y="206"/>
      <point x="300" y="179"/>
      <point x="274" y="147" type="curve" smooth="yes"/>
      <point x="237" y="102"/>
      <point x="188" y="66"/>
      <point x="111" y="33" type="curve" smooth="yes"/>
      <point x="77" y="18"/>
      <point x="104" y="-25"/>
      <point x="142" y="-13" type="curve" smooth="yes"/>
      <point x="339" y="50"/>
      <point x="453" y="196"/>
      <point x="453" y="375" type="curve" smooth="yes"/>
      <point x="453" y="527"/>
      <point x="374" y="637"/>
      <point x="242" y="637" type="curve" smooth="yes"/>
      <point x="130" y="637"/>
      <point x="39" y="544"/>
      <point x="39" y="429" type="curve" smooth="yes"/>
      <point x="39" y="322"/>
      <point x="121" y="236"/>
      <point x="226" y="236" type="curve" smooth="yes"/>
      <point x="260" y="236"/>
      <point x="288" y="239"/>
    </contour>
    <contour>
      <point x="240" y="586" type="curve" smooth="yes"/>
      <point x="304" y="586"/>
      <point x="344" y="525"/>
      <point x="344" y="394" type="curve" smooth="yes"/>
      <point x="344" y="371"/>
      <point x="344" y="350"/>
      <point x="326" y="332" type="curve" smooth="yes"/>
      <point x="307" y="314"/>
      <point x="265" y="293"/>
      <point x="239" y="293" type="curve" smooth="yes"/>
      <point x="187" y="293"/>
      <point x="145" y="343"/>
      <point x="145" y="439" type="curve" smooth="yes"/>
      <point x="145" y="539"/>
      <point x="186" y="586"/>
    </contour>
  </outline>
</glyph>
<glyph name="at" format="2">
  <advance width="960"/>
  <unicode hex="0040"/>
  <outline>
    <contour>
      <point x="584" y="477" type="curve"/>
      <point x="584" y="478" type="line"/>
      <point x="568" y="498"/>
      <point x="545" y="508"/>
      <point x="515" y="508" type="curve" smooth="yes"/>
      <point x="473" y="508"/>
      <point x="421" y="481"/>
      <point x="378" y="437" type="curve" smooth="yes"/>
      <point x="313" y="371"/>
      <point x="278" y="277"/>
      <point x="278" y="203" type="curve" smooth="yes"/>
      <point x="278" y="143"/>
      <point x="315" y="90"/>
      <point x="370" y="90" type="curve" smooth="yes"/>
      <point x="421" y="90"/>
      <point x="471" y="130"/>
      <point x="506" y="167" type="curve"/>
      <point x="511" y="173"/>
      <point x="511" y="171"/>
      <point x="511" y="164" type="curve" smooth="yes"/>
      <point x="511" y="115"/>
      <point x="540" y="90"/>
      <point x="590" y="90" type="curve" smooth="yes"/>
      <point x="727" y="90"/>
      <point x="842" y="242"/>
      <point x="842" y="407" type="curve" smooth="yes"/>
      <point x="842" y="585"/>
      <point x="706" y="697"/>
      <point x="522" y="697" type="curve" smooth="yes"/>
      <point x="294" y="697"/>
      <point x="109" y="512"/>
      <point x="109" y="277" type="curve" smooth="yes"/>
      <point x="109" y="58"/>
      <point x="275" y="-105"/>
      <point x="491" y="-105" type="curve" smooth="yes"/>
      <point x="662" y="-105"/>
      <point x="808" y="-4"/>
      <point x="863" y="156" type="curve" smooth="yes"/>
      <point x="866" y="164"/>
      <point x="869" y="179"/>
      <point x="850" y="184" type="curve"/>
      <point x="846" y="184"/>
      <point x="842" y="185"/>
      <point x="839" y="185" type="curve" smooth="yes"/>
      <point x="821" y="185"/>
      <point x="817" y="179"/>
      <point x="811" y="166" type="curve" smooth="yes"/>
      <point x="748" y="26"/>
      <point x="636" y="-44"/>
      <point x="493" y="-44" type="curve" smooth="yes"/>
      <point x="327" y="-44"/>
      <point x="182" y="80"/>
      <point x="182" y="266" type="curve" smooth="yes"/>
      <point x="182" y="479"/>
      <point x="336" y="644"/>
      <point x="525" y="644" type="curve" smooth="yes"/>
      <point x="674" y="644"/>
      <point x="783" y="544"/>
      <point x="783" y="404" type="curve" smooth="yes"/>
      <point x="783" y="332"/>
      <point x="752" y="257"/>
      <point x="709" y="205" type="curve" smooth="yes"/>
      <point x="681" y="172"/>
      <point x="642" y="150"/>
      <point x="618" y="150" type="curve" smooth="yes"/>
      <point x="606" y="150"/>
      <point x="601" y="158"/>
      <point x="602" y="177" type="curve" smooth="yes"/>
      <point x="603" y="190"/>
      <point x="604" y="199"/>
      <point x="608" y="211" type="curve" smooth="yes"/>
      <point x="612" y="224"/>
      <point x="617" y="242"/>
      <point x="626" y="273" type="curve" smooth="yes"/>
      <point x="646" y="340"/>
      <point x="677" y="452"/>
      <point x="687" y="485" type="curve"/>
      <point x="687" y="497"/>
      <point x="681" y="507"/>
      <point x="666" y="507" type="curve" smooth="yes"/>
      <point x="659" y="507"/>
      <point x="635" y="508"/>
      <point x="626" y="507" type="curve" smooth="yes"/>
      <point x="599" y="505"/>
      <point x="595" y="501"/>
    </contour>
    <contour>
      <point x="519" y="458" type="curve" smooth="yes"/>
      <point x="540" y="458"/>
      <point x="561" y="441"/>
      <point x="561" y="411" type="curve" smooth="yes"/>
      <point x="561" y="353"/>
      <point x="542" y="289"/>
      <point x="506" y="242" type="curve" smooth="yes"/>
      <point x="466" y="189"/>
      <point x="434" y="171"/>
      <point x="408" y="171" type="curve" smooth="yes"/>
      <point x="393" y="171"/>
      <point x="376" y="186"/>
      <point x="376" y="215" type="curve" smooth="yes"/>
      <point x="376" y="267"/>
      <point x="412" y="366"/>
      <point x="462" y="425" type="curve" smooth="yes"/>
      <point x="482" y="447"/>
      <point x="504" y="458"/>
    </contour>
  </outline>
</glyph>
<glyph name="Q" format="2">
  <advance width="822"/>
  <unicode hex="0051"/>
  <outline>
    <contour>
      <point x="808" y="-182" type="curve"/>
      <point x="816" y="-169"/>
      <point x="815" y="-155"/>
      <point x="802" y="-151" type="curve"/>
      <point x="741" y="-149"/>
      <point x="710" y="-134"/>
      <point x="651" y="-84" type="curve" smooth="yes"/>
      <point x="615" y="-54"/>
      <point x="575" y="-22"/>
      <point x="530" y="-1" type="curve" smooth="yes"/>
      <point x="528" y="0"/>
      <point x="528" y="1"/>
      <point x="530" y="1" type="curve"/>
      <point x="672" y="55"/>
      <point x="768" y="184"/>
      <point x="768" y="336" type="curve" smooth="yes"/>
      <point x="768" y="526"/>
      <point x="625" y="667"/>
      <point x="412" y="667" type="curve" smooth="yes"/>
      <point x="196" y="667"/>
      <point x="38" y="513"/>
      <point x="38" y="312" type="curve" smooth="yes"/>
      <point x="38" y="132"/>
      <point x="172" y="-4"/>
      <point x="373" y="-22" type="curve"/>
      <point x="396" y="-31"/>
      <point x="407" y="-35"/>
      <point x="420" y="-45" type="curve" smooth="yes"/>
      <point x="435" y="-56"/>
      <point x="452" y="-73"/>
      <point x="488" y="-103" type="curve" smooth="yes"/>
      <point x="555" y="-159"/>
      <point x="634" y="-213"/>
      <point x="729" y="-213" type="curve" smooth="yes"/>
      <point x="748" y="-213"/>
      <point x="762" y="-211"/>
      <point x="781" y="-207" type="curve" smooth="yes"/>
      <point x="791" y="-205"/>
      <point x="802" y="-193"/>
    </contour>
    <contour>
      <point x="385" y="609" type="curve" smooth="yes"/>
      <point x="540" y="609"/>
      <point x="635" y="487"/>
      <point x="635" y="307" type="curve" smooth="yes"/>
      <point x="635" y="179"/>
      <point x="566" y="32"/>
      <point x="426" y="32" type="curve" smooth="yes"/>
      <point x="277" y="32"/>
      <point x="169" y="162"/>
      <point x="169" y="335" type="curve" smooth="yes"/>
      <point x="169" y="500"/>
      <point x="255" y="609"/>
    </contour>
  </outline>
</glyph>
<glyph name="underscore" format="2">
  <advance width="523"/>
  <unicode hex="005F"/>
  <outline>
    <contour>
      <point x="520" y="-232" type="curve" smooth="yes"/>
      <point x="530" y="-231"/>
      <point x="529" y="-226"/>
      <point x="529" y="-216" type="curve" smooth="yes"/>
      <point x="529" y="-195" type="line" smooth="yes"/>
      <point x="529" y="-183"/>
      <point x="525" y="-179"/>
      <point x="511" y="-179" type="curve" smooth="yes"/>
      <point x="388" y="-179"/>
      <point x="140" y="-179"/>
      <point x="15" y="-178" type="curve" smooth="yes"/>
      <point x="-5" y="-178"/>
      <point x="-4" y="-184"/>
      <point x="-4" y="-193" type="curve" smooth="yes"/>
      <point x="-4" y="-211" type="line" smooth="yes"/>
      <point x="-4" y="-226"/>
      <point x="-8" y="-232"/>
      <point x="19" y="-232" type="curve" smooth="yes"/>
      <point x="500" y="-232" type="line" smooth="yes"/>
      <point x="508" y="-232"/>
      <point x="513" y="-233"/>
    </contour>
  </outline>
</glyph>
<glyph name="b" format="2">
  <advance width="494"/>
  <unicode hex="0062"/>
  <outline>
    <contour>
      <point x="171" y="376" type="curve"/>
      <point x="170" y="378"/>
      <point x="170" y="382"/>
      <point x="170" y="388" type="curve" smooth="yes"/>
      <point x="170" y="473"/>
      <point x="170" y="633"/>
      <point x="170" y="700" type="curve" smooth="yes"/>
      <point x="170" y="720"/>
      <point x="164" y="732"/>
      <point x="138" y="724" type="curve" smooth="yes"/>
      <point x="19" y="684" type="line" smooth="yes"/>
      <point x="1" y="678"/>
      <point x="1" y="644"/>
      <point x="19" y="638" type="curve"/>
      <point x="34" y="635"/>
      <point x="47" y="632"/>
      <point x="61" y="630" type="curve" smooth="yes"/>
      <point x="73" y="628"/>
      <point x="74" y="626"/>
      <point x="74" y="621" type="curve" smooth="yes"/>
      <point x="74" y="614"/>
      <point x="75" y="603"/>
      <point x="75" y="586" type="curve" smooth="yes"/>
      <point x="76" y="461"/>
      <point x="77" y="224"/>
      <point x="75" y="31" type="curve"/>
      <point x="76" y="20"/>
      <point x="83" y="7"/>
      <point x="92" y="4" type="curve"/>
      <point x="142" y="-7"/>
      <point x="200" y="-15"/>
      <point x="230" y="-15" type="curve" smooth="yes"/>
      <point x="367" y="-15"/>
      <point x="464" y="93"/>
      <point x="464" y="232" type="curve" smooth="yes"/>
      <point x="464" y="341"/>
      <point x="391" y="436"/>
      <point x="295" y="436" type="curve" smooth="yes"/>
      <point x="253" y="436"/>
      <point x="204" y="399"/>
    </contour>
    <contour>
      <point x="258" y="357" type="curve" smooth="yes"/>
      <point x="318" y="357"/>
      <point x="366" y="298"/>
      <point x="366" y="201" type="curve" smooth="yes"/>
      <point x="366" y="106"/>
      <point x="320" y="48"/>
      <point x="255" y="48" type="curve" smooth="yes"/>
      <point x="214" y="48"/>
      <point x="185" y="71"/>
      <point x="177" y="106" type="curve" smooth="yes"/>
      <point x="171" y="128"/>
      <point x="170" y="175"/>
      <point x="170" y="221" type="curve" smooth="yes"/>
      <point x="170" y="248"/>
      <point x="170" y="275"/>
      <point x="171" y="294" type="curve"/>
      <point x="171" y="306"/>
      <point x="171" y="315"/>
      <point x="174" y="317" type="curve" smooth="yes"/>
      <point x="213" y="345"/>
      <point x="235" y="357"/>
    </contour>
  </outline>
</glyph>
<glyph name="c" format="2">
  <advance width="434"/>
  <unicode hex="0063"/>
  <outline>
    <contour>
      <point x="393" y="93" type="curve"/>
      <point x="396" y="96"/>
      <point x="401" y="107"/>
      <point x="398" y="116" type="curve" smooth="yes"/>
      <point x="396" y="122"/>
      <point x="388" y="132"/>
      <point x="382" y="135" type="curve"/>
      <point x="366" y="139"/>
      <point x="355" y="126"/>
      <point x="352" y="118" type="curve"/>
      <point x="327" y="82"/>
      <point x="292" y="62"/>
      <point x="247" y="62" type="curve" smooth="yes"/>
      <point x="178" y="62"/>
      <point x="125" y="121"/>
      <point x="125" y="216" type="curve" smooth="yes"/>
      <point x="125" y="306"/>
      <point x="180" y="375"/>
      <point x="235" y="375" type="curve" smooth="yes"/>
      <point x="251" y="375"/>
      <point x="263" y="371"/>
      <point x="283" y="352" type="curve" smooth="yes"/>
      <point x="309" y="327"/>
      <point x="326" y="315"/>
      <point x="351" y="315" type="curve" smooth="yes"/>
      <point x="376" y="315"/>
      <point x="396" y="335"/>
      <point x="396" y="361" type="curve" smooth="yes"/>
      <point x="396" y="409"/>
      <point x="330" y="432"/>
      <point x="270" y="432" type="curve" smooth="yes"/>
      <point x="135" y="432"/>
      <point x="25" y="326"/>
      <point x="25" y="194" type="curve" smooth="yes"/>
      <point x="25" y="77"/>
      <point x="103" y="-12"/>
      <point x="213" y="-12" type="curve" smooth="yes"/>
      <point x="287" y="-12"/>
      <point x="349" y="25"/>
    </contour>
  </outline>
</glyph>
<glyph name="e" format="2">
  <advance width="427"/>
  <unicode hex="0065"/>
  <outline>
    <contour>
      <point x="387" y="254" type="curve" smooth="yes"/>
      <point x="412" y="255"/>
      <point x="414" y="277"/>
      <point x="408" y="293" type="curve"/>
      <point x="397" y="307"/>
      <point x="389" y="323"/>
      <point x="381" y="339" type="curve" smooth="yes"/>
      <point x="352" y="401"/>
      <point x="304" y="429"/>
      <point x="232" y="429" type="curve" smooth="yes"/>
      <point x="111" y="429"/>
      <point x="21" y="331"/>
      <point x="21" y="202" type="curve" smooth="yes"/>
      <point x="21" y="83"/>
      <point x="102" y="-15"/>
      <point x="212" y="-15" type="curve" smooth="yes"/>
      <point x="294" y="-15"/>
      <point x="356" y="41"/>
      <point x="405" y="96" type="curve"/>
      <point x="413" y="110"/>
      <point x="402" y="129"/>
      <point x="389" y="132" type="curve" smooth="yes"/>
      <point x="380" y="134"/>
      <point x="369" y="130"/>
      <point x="364" y="124" type="curve" smooth="yes"/>
      <point x="328" y="82"/>
      <point x="294" y="66"/>
      <point x="251" y="66" type="curve" smooth="yes"/>
      <point x="176" y="66"/>
      <point x="118" y="132"/>
      <point x="118" y="226" type="curve" smooth="yes"/>
      <point x="118" y="235"/>
      <point x="118" y="254"/>
      <point x="132" y="254" type="curve" smooth="yes"/>
      <point x="194" y="253"/>
      <point x="312" y="251"/>
    </contour>
    <contour>
      <point x="210" y="379" type="curve" smooth="yes"/>
      <point x="245" y="379"/>
      <point x="276" y="357"/>
      <point x="290" y="312" type="curve"/>
      <point x="291" y="308"/>
      <point x="286" y="305"/>
      <point x="278" y="305" type="curve" smooth="yes"/>
      <point x="143" y="305" type="line" smooth="yes"/>
      <point x="137" y="305"/>
      <point x="129" y="305"/>
      <point x="130" y="308" type="curve" smooth="yes"/>
      <point x="149" y="357"/>
      <point x="177" y="379"/>
    </contour>
  </outline>
</glyph>
<glyph name="o" format="2">
  <advance width="502"/>
  <unicode hex="006F"/>
  <outline>
    <contour>
      <point x="254" y="-15" type="curve" smooth="yes"/>
      <point x="383" y="-15"/>
      <point x="485" y="83"/>
      <point x="485" y="207" type="curve" smooth="yes"/>
      <point x="485" y="334"/>
      <point x="382" y="430"/>
      <point x="251" y="430" type="curve" smooth="yes"/>
      <point x="121" y="430"/>
      <point x="20" y="336"/>
      <point x="20" y="208" type="curve" smooth="yes"/>
      <point x="20" y="82"/>
      <point x="122" y="-15"/>
    </contour>
    <contour>
      <point x="237" y="375" type="curve" smooth="yes"/>
      <point x="309" y="375"/>
      <point x="374" y="300"/>
      <point x="374" y="192" type="curve" smooth="yes"/>
      <point x="374" y="105"/>
      <point x="326" y="41"/>
      <point x="266" y="41" type="curve" smooth="yes"/>
      <point x="193" y="41"/>
      <point x="128" y="122"/>
      <point x="128" y="237" type="curve" smooth="yes"/>
      <point x="128" y="319"/>
      <point x="177" y="375"/>
    </contour>
  </outline>
</glyph>
<glyph name="p" format="2">
  <advance width="506"/>
  <unicode hex="0070"/>
  <outline>
    <contour>
      <point x="187" y="369" type="curve"/>
      <point x="182" y="366"/>
      <point x="181" y="372"/>
      <point x="181" y="378" type="curve" smooth="yes"/>
      <point x="181" y="430" type="line" smooth="yes"/>
      <point x="181" y="461"/>
      <point x="152" y="456"/>
      <point x="137" y="447" type="curve" smooth="yes"/>
      <point x="26" y="380" type="line"/>
      <point x="24" y="378"/>
      <point x="23" y="377"/>
      <point x="22" y="375" type="curve"/>
      <point x="12" y="365"/>
      <point x="12" y="338"/>
      <point x="31" y="334" type="curve"/>
      <point x="42" y="331"/>
      <point x="53" y="326"/>
      <point x="65" y="323" type="curve" smooth="yes"/>
      <point x="81" y="319"/>
      <point x="82" y="318"/>
      <point x="82" y="300" type="curve" smooth="yes"/>
      <point x="82" y="277" type="line"/>
      <point x="82" y="-126" type="line" smooth="yes"/>
      <point x="82" y="-220"/>
      <point x="74" y="-224"/>
      <point x="30" y="-224" type="curve" smooth="yes"/>
      <point x="20" y="-224"/>
      <point x="16" y="-223"/>
      <point x="10" y="-232" type="curve" smooth="yes"/>
      <point x="4" y="-242"/>
      <point x="3" y="-259"/>
      <point x="10" y="-269" type="curve" smooth="yes"/>
      <point x="16" y="-278"/>
      <point x="21" y="-278"/>
      <point x="30" y="-278" type="curve" smooth="yes"/>
      <point x="100" y="-278"/>
      <point x="181" y="-276"/>
      <point x="249" y="-279" type="curve" smooth="yes"/>
      <point x="254" y="-279"/>
      <point x="267" y="-278"/>
      <point x="272" y="-269" type="curve" smooth="yes"/>
      <point x="276" y="-261"/>
      <point x="276" y="-244"/>
      <point x="273" y="-236" type="curve" smooth="yes"/>
      <point x="269" y="-225"/>
      <point x="254" y="-221"/>
      <point x="246" y="-221" type="curve" smooth="yes"/>
      <point x="232" y="-221" type="line" smooth="yes"/>
      <point x="187" y="-221"/>
      <point x="181" y="-220"/>
      <point x="181" y="-126" type="curve" smooth="yes"/>
      <point x="181" y="-19" type="line" smooth="yes"/>
      <point x="181" y="-10"/>
      <point x="185" y="-8"/>
      <point x="189" y="-9" type="curve" smooth="yes"/>
      <point x="213" y="-16"/>
      <point x="231" y="-20"/>
      <point x="254" y="-20" type="curve" smooth="yes"/>
      <point x="376" y="-20"/>
      <point x="482" y="94"/>
      <point x="482" y="221" type="curve" smooth="yes"/>
      <point x="482" y="326"/>
      <point x="408" y="425"/>
      <point x="317" y="425" type="curve" smooth="yes"/>
      <point x="278" y="425"/>
      <point x="243" y="408"/>
    </contour>
    <contour>
      <point x="268" y="346" type="curve" smooth="yes"/>
      <point x="330" y="346"/>
      <point x="381" y="285"/>
      <point x="381" y="188" type="curve" smooth="yes"/>
      <point x="381" y="103"/>
      <point x="337" y="43"/>
      <point x="281" y="43" type="curve" smooth="yes"/>
      <point x="250" y="43"/>
      <point x="214" y="59"/>
      <point x="181" y="90" type="curve"/>
      <point x="181" y="297" type="line" smooth="yes"/>
      <point x="181" y="302"/>
      <point x="183" y="306"/>
      <point x="184" y="307" type="curve"/>
      <point x="216" y="332"/>
      <point x="244" y="346"/>
    </contour>
  </outline>
</glyph>
<glyph name="q" format="2">
  <advance width="507"/>
  <unicode hex="0071"/>
  <outline>
    <contour>
      <point x="329" y="30" type="curve"/>
      <point x="335" y="34"/>
      <point x="334" y="30"/>
      <point x="336" y="17" type="curve"/>
      <point x="336" y="-124" type="line" smooth="yes"/>
      <point x="336" y="-219"/>
      <point x="329" y="-221"/>
      <point x="287" y="-221" type="curve" smooth="yes"/>
      <point x="273" y="-221"/>
      <point x="259" y="-220"/>
      <point x="246" y="-222" type="curve"/>
      <point x="230" y="-229"/>
      <point x="231" y="-238"/>
      <point x="231" y="-252" type="curve" smooth="yes"/>
      <point x="231" y="-274"/>
      <point x="249" y="-277"/>
      <point x="260" y="-277" type="curve" smooth="yes"/>
      <point x="319" y="-275"/>
      <point x="416" y="-275"/>
      <point x="477" y="-277" type="curve" smooth="yes"/>
      <point x="484" y="-277"/>
      <point x="494" y="-278"/>
      <point x="498" y="-271" type="curve" smooth="yes"/>
      <point x="508" y="-254"/>
      <point x="505" y="-222"/>
      <point x="485" y="-222" type="curve" smooth="yes"/>
      <point x="475" y="-222" type="line" smooth="yes"/>
      <point x="444" y="-222"/>
      <point x="434" y="-217"/>
      <point x="434" y="-124" type="curve" smooth="yes"/>
      <point x="434" y="298" type="line"/>
      <point x="434" y="341" type="line" smooth="yes"/>
      <point x="434" y="368"/>
      <point x="436" y="394"/>
      <point x="442" y="415" type="curve"/>
      <point x="432" y="432"/>
      <point x="406" y="427"/>
      <point x="399" y="423" type="curve"/>
      <point x="392" y="417"/>
      <point x="384" y="406"/>
      <point x="376" y="396" type="curve" smooth="yes"/>
      <point x="367" y="385"/>
      <point x="372" y="389"/>
      <point x="361" y="394" type="curve" smooth="yes"/>
      <point x="324" y="413"/>
      <point x="288" y="426"/>
      <point x="253" y="426" type="curve" smooth="yes"/>
      <point x="126" y="426"/>
      <point x="29" y="322"/>
      <point x="29" y="191" type="curve" smooth="yes"/>
      <point x="29" y="73"/>
      <point x="101" y="-21"/>
      <point x="204" y="-21" type="curve" smooth="yes"/>
      <point x="247" y="-21"/>
      <point x="286" y="-3"/>
    </contour>
    <contour>
      <point x="335" y="282" type="curve" smooth="yes"/>
      <point x="339" y="228"/>
      <point x="337" y="196"/>
      <point x="337" y="117" type="curve" smooth="yes"/>
      <point x="337" y="108"/>
      <point x="335" y="94"/>
      <point x="334" y="92" type="curve"/>
      <point x="302" y="65"/>
      <point x="271" y="51"/>
      <point x="247" y="51" type="curve" smooth="yes"/>
      <point x="181" y="51"/>
      <point x="125" y="119"/>
      <point x="125" y="218" type="curve" smooth="yes"/>
      <point x="125" y="319"/>
      <point x="173" y="373"/>
      <point x="242" y="373" type="curve" smooth="yes"/>
      <point x="282" y="373"/>
      <point x="316" y="348"/>
      <point x="328" y="313" type="curve" smooth="yes"/>
      <point x="332" y="302"/>
      <point x="334" y="295"/>
    </contour>
  </outline>
</glyph>
<glyph name="t" format="2">
  <advance width="322"/>
  <unicode hex="0074"/>
  <outline>
    <contour>
      <point x="180" y="-11" type="curve" smooth="yes"/>
      <point x="233" y="-11"/>
      <point x="276" y="25"/>
      <point x="302" y="83" type="curve"/>
      <point x="307" y="98"/>
      <point x="308" y="101"/>
      <point x="299" y="112" type="curve"/>
      <point x="292" y="119"/>
      <point x="267" y="128"/>
      <point x="260" y="110" type="curve"/>
      <point x="241" y="75"/>
      <point x="224" y="65"/>
      <point x="211" y="65" type="curve" smooth="yes"/>
      <point x="177" y="65"/>
      <point x="162" y="80"/>
      <point x="162" y="182" type="curve" smooth="yes"/>
      <point x="162" y="338" type="line" smooth="yes"/>
      <point x="162" y="351"/>
      <point x="168" y="354"/>
      <point x="172" y="354" type="curve" smooth="yes"/>
      <point x="255" y="352" type="line" smooth="yes"/>
      <point x="269" y="352"/>
      <point x="274" y="354"/>
      <point x="280" y="365" type="curve"/>
      <point x="284" y="375"/>
      <point x="288" y="389"/>
      <point x="290" y="399" type="curve"/>
      <point x="296" y="420"/>
      <point x="278" y="427"/>
      <point x="268" y="427" type="curve" smooth="yes"/>
      <point x="171" y="427" type="line"/>
      <point x="169" y="428"/>
      <point x="162" y="428"/>
      <point x="162" y="430" type="curve"/>
      <point x="160" y="452"/>
      <point x="161" y="496"/>
      <point x="162" y="518" type="curve" smooth="yes"/>
      <point x="163" y="543"/>
      <point x="120" y="540"/>
      <point x="116" y="521" type="curve"/>
      <point x="94" y="460"/>
      <point x="67" y="418"/>
      <point x="33" y="401" type="curve"/>
      <point x="30" y="400"/>
      <point x="23" y="395"/>
      <point x="20" y="389" type="curve" smooth="yes"/>
      <point x="16" y="380"/>
      <point x="20" y="366"/>
      <point x="26" y="356" type="curve"/>
      <point x="41" y="354"/>
      <point x="47" y="353"/>
      <point x="61" y="352" type="curve"/>
      <point x="65" y="351"/>
      <point x="66" y="349"/>
      <point x="66" y="339" type="curve" smooth="yes"/>
      <point x="66" y="159" type="line"/>
      <point x="66" y="120" type="line" smooth="yes"/>
      <point x="66" y="45"/>
      <point x="112" y="-11"/>
    </contour>
  </outline>
</glyph>
<glyph name="y" format="2">
  <advance width="491"/>
  <unicode hex="0079"/>
  <outline>
    <contour>
      <point x="278" y="136" type="line" smooth="yes"/>
      <point x="274" y="125"/>
      <point x="270" y="121"/>
      <point x="267" y="128" type="curve" smooth="yes"/>
      <point x="240" y="196"/>
      <point x="219" y="259"/>
      <point x="188" y="326" type="curve"/>
      <point x="184" y="336"/>
      <point x="169" y="361"/>
      <point x="187" y="366" type="curve"/>
      <point x="196" y="369"/>
      <point x="210" y="369"/>
      <point x="217" y="369" type="curve"/>
      <point x="234" y="373"/>
      <point x="244" y="420"/>
      <point x="208" y="419" type="curve" smooth="yes"/>
      <point x="180" y="419"/>
      <point x="93" y="419"/>
      <point x="44" y="419" type="curve" smooth="yes"/>
      <point x="41" y="419"/>
      <point x="33" y="419"/>
      <point x="31" y="419" type="curve" smooth="yes"/>
      <point x="-3" y="420"/>
      <point x="6" y="373"/>
      <point x="22" y="370" type="curve"/>
      <point x="63" y="366"/>
      <point x="65" y="366"/>
      <point x="99" y="284" type="curve" smooth="yes"/>
      <point x="219" y="-5" type="line"/>
      <point x="207" y="-67"/>
      <point x="201" y="-137"/>
      <point x="128" y="-156" type="curve" smooth="yes"/>
      <point x="98" y="-165"/>
      <point x="71" y="-177"/>
      <point x="71" y="-207" type="curve" smooth="yes"/>
      <point x="71" y="-236"/>
      <point x="98" y="-264"/>
      <point x="128" y="-264" type="curve" smooth="yes"/>
      <point x="147" y="-264"/>
      <point x="172" y="-256"/>
      <point x="185" y="-240" type="curve" smooth="yes"/>
      <point x="199" y="-222"/>
      <point x="210" y="-204"/>
      <point x="222" y="-178" type="curve" smooth="yes"/>
      <point x="233" y="-152"/>
      <point x="246" y="-120"/>
      <point x="263" y="-74" type="curve" smooth="yes"/>
      <point x="382" y="250" type="line" smooth="yes"/>
      <point x="421" y="356"/>
      <point x="437" y="367"/>
      <point x="469" y="369" type="curve"/>
      <point x="473" y="370"/>
      <point x="479" y="371"/>
      <point x="482" y="378" type="curve" smooth="yes"/>
      <point x="489" y="393"/>
      <point x="486" y="419"/>
      <point x="461" y="419" type="curve" smooth="yes"/>
      <point x="409" y="419"/>
      <point x="372" y="418"/>
      <point x="314" y="418" type="curve" smooth="yes"/>
      <point x="311" y="418"/>
      <point x="308" y="419"/>
      <point x="304" y="418" type="curve"/>
      <point x="280" y="414"/>
      <point x="291" y="375"/>
      <point x="301" y="369" type="curve"/>
      <point x="347" y="369"/>
      <point x="350" y="362"/>
      <point x="350" y="345" type="curve" smooth="yes"/>
      <point x="350" y="326"/>
      <point x="334" y="287"/>
      <point x="327" y="269" type="curve" smooth="yes"/>
    </contour>
  </outline>
</glyph>
<glyph name="onehalf" format="2">
  <advance width="715"/>
  <unicode hex="00BD"/>
  <outline>
    <contour>
      <point x="528" y="66" type="line"/>
      <point x="549" y="83"/>
      <point x="566" y="96"/>
      <point x="585" y="108" type="curve" smooth="yes"/>
      <point x="632" y="140"/>
      <point x="684" y="172"/>
      <point x="684" y="238" type="curve" smooth="yes"/>
      <point x="684" y="302"/>
      <point x="624" y="344"/>
      <point x="557" y="344" type="curve" smooth="yes"/>
      <point x="485" y="344"/>
      <point x="428" y="298"/>
      <point x="421" y="224" type="curve"/>
      <point x="421" y="203"/>
      <point x="470" y="209"/>
      <point x="474" y="218" type="curve"/>
      <point x="487" y="255"/>
      <point x="513" y="274"/>
      <point x="541" y="274" type="curve" smooth="yes"/>
      <point x="571" y="274"/>
      <point x="592" y="254"/>
      <point x="592" y="231" type="curve" smooth="yes"/>
      <point x="592" y="183"/>
      <point x="532" y="138"/>
      <point x="497" y="109" type="curve" smooth="yes"/>
      <point x="456" y="74"/>
      <point x="433" y="51"/>
      <point x="415" y="29" type="curve"/>
      <point x="415" y="11" type="line" smooth="yes"/>
      <point x="415" y="-4"/>
      <point x="421" y="-6"/>
      <point x="435" y="-6" type="curve" smooth="yes"/>
      <point x="658" y="-6" type="line" smooth="yes"/>
      <point x="672" y="-6"/>
      <point x="682" y="-2"/>
      <point x="686" y="15" type="curve" smooth="yes"/>
      <point x="691" y="42"/>
      <point x="692" y="57"/>
      <point x="696" y="87" type="curve"/>
      <point x="696" y="98"/>
      <point x="693" y="104"/>
      <point x="679" y="104" type="curve" smooth="yes"/>
      <point x="671" y="104"/>
      <point x="662" y="104"/>
      <point x="658" y="104" type="curve" smooth="yes"/>
      <point x="633" y="104"/>
      <point x="643" y="80"/>
      <point x="633" y="67" type="curve"/>
      <point x="628" y="65"/>
      <point x="609" y="66"/>
      <point x="603" y="66" type="curve" smooth="yes"/>
    </contour>
    <contour>
      <point x="162" y="-22" type="curve" smooth="yes"/>
      <point x="628" y="629" type="line" smooth="yes"/>
      <point x="648" y="657"/>
      <point x="591" y="660"/>
      <point x="582" y="662" type="curve"/>
      <point x="571" y="658"/>
      <point x="568" y="664"/>
      <point x="558" y="650" type="curve" smooth="yes"/>
      <point x="90" y="-4" type="line" smooth="yes"/>
      <point x="84" y="-13"/>
      <point x="87" y="-27"/>
      <point x="106" y="-31" type="curve" smooth="yes"/>
      <point x="134" y="-37" type="line"/>
      <point x="135" y="-37"/>
      <point x="137" y="-37"/>
      <point x="139" y="-38" type="curve"/>
      <point x="151" y="-40"/>
      <point x="156" y="-30"/>
    </contour>
    <contour>
      <point x="236" y="294" type="curve" smooth="yes"/>
      <point x="246" y="294"/>
      <point x="253" y="309"/>
      <point x="253" y="320" type="curve" smooth="yes"/>
      <point x="253" y="326"/>
      <point x="253" y="330"/>
      <point x="252" y="333" type="curve"/>
      <point x="251" y="346"/>
      <point x="241" y="345"/>
      <point x="230" y="347" type="curve"/>
      <point x="223" y="346"/>
      <point x="212" y="348"/>
      <point x="205" y="348" type="curve" smooth="yes"/>
      <point x="201" y="348"/>
      <point x="201" y="347"/>
      <point x="201" y="350" type="curve" smooth="yes"/>
      <point x="201" y="352"/>
      <point x="201" y="354"/>
      <point x="201" y="356" type="curve" smooth="yes"/>
      <point x="201" y="629" type="line" smooth="yes"/>
      <point x="201" y="640"/>
      <point x="147" y="644"/>
      <point x="143" y="639" type="curve" smooth="yes"/>
      <point x="125" y="617"/>
      <point x="86" y="586"/>
      <point x="47" y="563" type="curve"/>
      <point x="34" y="547"/>
      <point x="48" y="521"/>
      <point x="70" y="523" type="curve"/>
      <point x="87" y="529"/>
      <point x="104" y="535"/>
      <point x="119" y="544" type="curve"/>
      <point x="119" y="355" type="line" smooth="yes"/>
      <point x="119" y="349"/>
      <point x="118" y="349"/>
      <point x="110" y="348" type="curve" smooth="yes"/>
      <point x="82" y="345" type="line" smooth="yes"/>
      <point x="72" y="344"/>
      <point x="66" y="329"/>
      <point x="66" y="320" type="curve" smooth="yes"/>
      <point x="66" y="310"/>
      <point x="72" y="294"/>
      <point x="84" y="294" type="curve" smooth="yes"/>
      <point x="132" y="296"/>
      <point x="187" y="296"/>
    </contour>
  </outline>
</glyph>
<glyph name="Eth" format="2">
  <advance width="795"/>
  <unicode hex="00D0"/>
  <outline>
    <contour>
      <point x="502" y="16" type="curve" smooth="yes"/>
      <point x="650" y="58"/>
      <point x="762" y="196"/>
      <point x="762" y="348" type="curve" smooth="yes"/>
      <point x="762" y="450"/>
      <point x="712" y="537"/>
      <point x="632" y="595" type="curve" smooth="yes"/>
      <point x="559" y="648"/>
      <point x="474" y="667"/>
      <point x="344" y="667" type="curve" smooth="yes"/>
      <point x="269" y="667"/>
      <point x="194" y="667"/>
      <point x="120" y="664" type="curve" smooth="yes"/>
      <point x="39" y="661" type="line"/>
      <point x="23" y="658"/>
      <point x="15" y="650"/>
      <point x="15" y="632" type="curve" smooth="yes"/>
      <point x="15" y="618"/>
      <point x="21" y="604"/>
      <point x="40" y="604" type="curve" smooth="yes"/>
      <point x="111" y="604"/>
      <point x="116" y="603"/>
      <point x="116" y="515" type="curve" smooth="yes"/>
      <point x="116" y="397" type="line" smooth="yes"/>
      <point x="116" y="388"/>
      <point x="110" y="379"/>
      <point x="106" y="379" type="curve" smooth="yes"/>
      <point x="31" y="379" type="line" smooth="yes"/>
      <point x="1" y="379"/>
      <point x="6" y="354"/>
      <point x="6" y="354" type="curve"/>
      <point x="6" y="320" type="line" smooth="yes"/>
      <point x="6" y="307"/>
      <point x="7" y="296"/>
      <point x="22" y="294" type="curve"/>
      <point x="106" y="295" type="line" smooth="yes"/>
      <point x="113" y="295"/>
      <point x="116" y="290"/>
      <point x="116" y="285" type="curve" smooth="yes"/>
      <point x="116" y="226"/>
      <point x="117" y="164"/>
      <point x="115" y="105" type="curve" smooth="yes"/>
      <point x="114" y="59"/>
      <point x="104" y="52"/>
      <point x="50" y="52" type="curve" smooth="yes"/>
      <point x="35" y="52"/>
      <point x="27" y="58"/>
      <point x="17" y="40" type="curve" smooth="yes"/>
      <point x="13" y="33"/>
      <point x="14" y="21"/>
      <point x="14" y="13" type="curve" smooth="yes"/>
      <point x="14" y="-1"/>
      <point x="28" y="-7"/>
      <point x="37" y="-6" type="curve"/>
      <point x="109" y="-4"/>
      <point x="234" y="-5"/>
      <point x="287" y="-5" type="curve" smooth="yes"/>
      <point x="424" y="-5"/>
      <point x="436" y="-3"/>
    </contour>
    <contour>
      <point x="529" y="558" type="curve" smooth="yes"/>
      <point x="589" y="512"/>
      <point x="627" y="428"/>
      <point x="627" y="332" type="curve" smooth="yes"/>
      <point x="627" y="216"/>
      <point x="566" y="114"/>
      <point x="473" y="72" type="curve" smooth="yes"/>
      <point x="428" y="51"/>
      <point x="396" y="47"/>
      <point x="303" y="47" type="curve" smooth="yes"/>
      <point x="234" y="47"/>
      <point x="233" y="52"/>
      <point x="233" y="106" type="curve" smooth="yes"/>
      <point x="233" y="281" type="line" smooth="yes"/>
      <point x="233" y="291"/>
      <point x="238" y="295"/>
      <point x="242" y="295" type="curve" smooth="yes"/>
      <point x="383" y="296" type="line" smooth="yes"/>
      <point x="401" y="296"/>
      <point x="405" y="297"/>
      <point x="409" y="315" type="curve"/>
      <point x="409" y="352" type="line" smooth="yes"/>
      <point x="409" y="365"/>
      <point x="406" y="380"/>
      <point x="382" y="380" type="curve" smooth="yes"/>
      <point x="376" y="380"/>
      <point x="292" y="377"/>
      <point x="263" y="378" type="curve" smooth="yes"/>
      <point x="239" y="379"/>
      <point x="233" y="378"/>
      <point x="233" y="395" type="curve" smooth="yes"/>
      <point x="233" y="602" type="line" smooth="yes"/>
      <point x="233" y="611"/>
      <point x="238" y="615"/>
      <point x="247" y="616" type="curve" smooth="yes"/>
      <point x="258" y="617"/>
      <point x="268" y="615"/>
      <point x="278" y="615" type="curve" smooth="yes"/>
      <point x="314" y="615"/>
      <point x="336" y="613"/>
      <point x="371" y="610" type="curve" smooth="yes"/>
      <point x="448" y="602"/>
      <point x="488" y="589"/>
    </contour>
  </outline>
</glyph>
<glyph name="multiply" format="2">
  <advance width="699"/>
  <unicode hex="00D7"/>
  <outline>
    <contour>
      <point x="600" y="520" type="curve" smooth="yes"/>
      <point x="629" y="547"/>
      <point x="594" y="567"/>
      <point x="575" y="584" type="curve" smooth="yes"/>
      <point x="565" y="593"/>
      <point x="538" y="583"/>
      <point x="529" y="573" type="curve" smooth="yes"/>
      <point x="484" y="522"/>
      <point x="412" y="448"/>
      <point x="367" y="407" type="curve" smooth="yes"/>
      <point x="355" y="397"/>
      <point x="353" y="396"/>
      <point x="345" y="404" type="curve" smooth="yes"/>
      <point x="288" y="464"/>
      <point x="215" y="537"/>
      <point x="167" y="582" type="curve" smooth="yes"/>
      <point x="150" y="599"/>
      <point x="129" y="583"/>
      <point x="127" y="582" type="curve"/>
      <point x="106" y="561"/>
      <point x="81" y="545"/>
      <point x="113" y="514" type="curve" smooth="yes"/>
      <point x="285" y="343" type="line" smooth="yes"/>
      <point x="290" y="338"/>
      <point x="291" y="335"/>
      <point x="284" y="329" type="curve"/>
      <point x="240" y="285"/>
      <point x="145" y="191"/>
      <point x="107" y="155" type="curve" smooth="yes"/>
      <point x="91" y="140"/>
      <point x="98" y="121"/>
      <point x="107" y="113" type="curve" smooth="yes"/>
      <point x="127" y="95"/>
      <point x="146" y="72"/>
      <point x="173" y="98" type="curve" smooth="yes"/>
      <point x="232" y="154"/>
      <point x="278" y="197"/>
      <point x="337" y="260" type="curve" smooth="yes"/>
      <point x="348" y="272"/>
      <point x="354" y="274"/>
      <point x="366" y="263" type="curve" smooth="yes"/>
      <point x="534" y="95" type="line" smooth="yes"/>
      <point x="546" y="84"/>
      <point x="559" y="82"/>
      <point x="577" y="96" type="curve" smooth="yes"/>
      <point x="599" y="113"/>
      <point x="627" y="128"/>
      <point x="595" y="158" type="curve" smooth="yes"/>
      <point x="417" y="332" type="line" smooth="yes"/>
      <point x="413" y="336"/>
      <point x="413" y="338"/>
      <point x="418" y="342" type="curve" smooth="yes"/>
      <point x="458" y="376"/>
      <point x="551" y="473"/>
    </contour>
  </outline>
</glyph>
<glyph name="Oslash" format="2">
  <advance width="864"/>
  <unicode hex="00D8"/>
  <outline>
    <contour>
      <point x="431" y="-22" type="curve" smooth="yes"/>
      <point x="645" y="-22"/>
      <point x="814" y="136"/>
      <point x="814" y="341" type="curve" smooth="yes"/>
      <point x="814" y="441"/>
      <point x="776" y="518"/>
      <point x="700" y="584" type="curve" smooth="yes"/>
      <point x="695" y="588"/>
      <point x="703" y="595"/>
      <point x="706" y="598" type="curve"/>
      <point x="755" y="654" type="line" smooth="yes"/>
      <point x="764" y="664"/>
      <point x="773" y="679"/>
      <point x="758" y="691" type="curve" smooth="yes"/>
      <point x="750" y="697" type="line" smooth="yes"/>
      <point x="736" y="707"/>
      <point x="723" y="699"/>
      <point x="718" y="695" type="curve"/>
      <point x="663" y="627" type="line" smooth="yes"/>
      <point x="658" y="621"/>
      <point x="654" y="617"/>
      <point x="650" y="619" type="curve"/>
      <point x="583" y="659"/>
      <point x="511" y="676"/>
      <point x="434" y="676" type="curve" smooth="yes"/>
      <point x="216" y="676"/>
      <point x="45" y="521"/>
      <point x="45" y="317" type="curve" smooth="yes"/>
      <point x="45" y="218"/>
      <point x="89" y="131"/>
      <point x="163" y="69" type="curve" smooth="yes"/>
      <point x="169" y="64"/>
      <point x="162" y="57"/>
      <point x="158" y="52" type="curve"/>
      <point x="87" y="-27" type="line" smooth="yes"/>
      <point x="75" y="-40"/>
      <point x="81" y="-52"/>
      <point x="91" y="-61" type="curve"/>
      <point x="106" y="-72"/>
      <point x="115" y="-77"/>
      <point x="131" y="-59" type="curve" smooth="yes"/>
      <point x="201" y="23" type="line"/>
      <point x="209" y="31"/>
      <point x="217" y="33"/>
      <point x="221" y="31" type="curve" smooth="yes"/>
      <point x="284" y="-3"/>
      <point x="357" y="-22"/>
    </contour>
    <contour>
      <point x="405" y="618" type="curve" smooth="yes"/>
      <point x="476" y="618"/>
      <point x="538" y="596"/>
      <point x="587" y="552" type="curve"/>
      <point x="592" y="547"/>
      <point x="581" y="537"/>
      <point x="577" y="533" type="curve" smooth="yes"/>
      <point x="490" y="439"/>
      <point x="336" y="260"/>
      <point x="250" y="157" type="curve" smooth="yes"/>
      <point x="241" y="146"/>
      <point x="238" y="142"/>
      <point x="233" y="150" type="curve"/>
      <point x="195" y="202"/>
      <point x="177" y="269"/>
      <point x="177" y="343" type="curve" smooth="yes"/>
      <point x="177" y="509"/>
      <point x="274" y="618"/>
    </contour>
    <contour>
      <point x="615" y="494" type="curve" smooth="yes"/>
      <point x="621" y="501"/>
      <point x="628" y="506"/>
      <point x="632" y="499" type="curve"/>
      <point x="702" y="392"/>
      <point x="700" y="229"/>
      <point x="626" y="124" type="curve" smooth="yes"/>
      <point x="582" y="61"/>
      <point x="528" y="35"/>
      <point x="449" y="35" type="curve" smooth="yes"/>
      <point x="386" y="35"/>
      <point x="331" y="54"/>
      <point x="281" y="96" type="curve"/>
      <point x="280" y="97"/>
      <point x="278" y="108"/>
      <point x="284" y="114" type="curve"/>
      <point x="370" y="213"/>
      <point x="528" y="395"/>
    </contour>
  </outline>
</glyph>
<glyph name="ae" format="2">
  <advance width="654"/>
  <unicode hex="00E6"/>
  <outline>
    <contour>
      <point x="602" y="252" type="line" smooth="yes"/>
      <point x="621" y="252"/>
      <point x="632" y="254"/>
      <point x="632" y="274" type="curve" smooth="yes"/>
      <point x="632" y="292" type="line"/>
      <point x="619" y="305"/>
      <point x="618" y="307"/>
      <point x="614" y="314" type="curve"/>
      <point x="583" y="386"/>
      <point x="547" y="433"/>
      <point x="458" y="433" type="curve" smooth="yes"/>
      <point x="409" y="433"/>
      <point x="360" y="416"/>
      <point x="324" y="383" type="curve"/>
      <point x="321" y="381"/>
      <point x="322" y="381"/>
      <point x="319" y="383" type="curve"/>
      <point x="291" y="413"/>
      <point x="250" y="431"/>
      <point x="208" y="431" type="curve" smooth="yes"/>
      <point x="175" y="431"/>
      <point x="145" y="420"/>
      <point x="109" y="393" type="curve" smooth="yes"/>
      <point x="65" y="360"/>
      <point x="40" y="333"/>
      <point x="40" y="303" type="curve" smooth="yes"/>
      <point x="40" y="264"/>
      <point x="51" y="264"/>
      <point x="74" y="274" type="curve" smooth="yes"/>
      <point x="128" y="298" type="line" smooth="yes"/>
      <point x="147" y="307"/>
      <point x="140" y="320"/>
      <point x="140" y="335" type="curve" smooth="yes"/>
      <point x="140" y="350"/>
      <point x="160" y="369"/>
      <point x="191" y="369" type="curve" smooth="yes"/>
      <point x="227" y="369"/>
      <point x="250" y="345"/>
      <point x="250" y="287" type="curve" smooth="yes"/>
      <point x="250" y="229" type="line"/>
      <point x="224" y="213"/>
      <point x="204" y="204"/>
      <point x="167" y="195" type="curve" smooth="yes"/>
      <point x="68" y="170"/>
      <point x="31" y="144"/>
      <point x="31" y="80" type="curve" smooth="yes"/>
      <point x="31" y="24"/>
      <point x="79" y="-17"/>
      <point x="139" y="-17" type="curve" smooth="yes"/>
      <point x="186" y="-17"/>
      <point x="244" y="13"/>
      <point x="286" y="55" type="curve" smooth="yes"/>
      <point x="289" y="58"/>
      <point x="291" y="57"/>
      <point x="295" y="53" type="curve"/>
      <point x="329" y="8"/>
      <point x="378" y="-17"/>
      <point x="434" y="-17" type="curve" smooth="yes"/>
      <point x="507" y="-17"/>
      <point x="570" y="35"/>
      <point x="614" y="84" type="curve" smooth="yes"/>
      <point x="622" y="93"/>
      <point x="628" y="103"/>
      <point x="615" y="114" type="curve" smooth="yes"/>
      <point x="603" y="124" type="line"/>
      <point x="593" y="134"/>
      <point x="581" y="127"/>
      <point x="574" y="119" type="curve"/>
      <point x="534" y="79"/>
      <point x="510" y="65"/>
      <point x="471" y="65" type="curve" smooth="yes"/>
      <point x="423" y="65"/>
      <point x="375" y="98"/>
      <point x="360" y="144" type="curve" smooth="yes"/>
      <point x="353" y="165"/>
      <point x="349" y="206"/>
      <point x="349" y="241" type="curve" smooth="yes"/>
      <point x="349" y="249"/>
      <point x="352" y="252"/>
      <point x="366" y="252" type="curve" smooth="yes"/>
    </contour>
    <contour>
      <point x="436" y="380" type="curve" smooth="yes"/>
      <point x="466" y="380"/>
      <point x="496" y="357"/>
      <point x="508" y="310" type="curve"/>
      <point x="510" y="304"/>
      <point x="505" y="303"/>
      <point x="501" y="303" type="curve" smooth="yes"/>
      <point x="366" y="303" type="line" smooth="yes"/>
      <point x="355" y="303"/>
      <point x="357" y="308"/>
      <point x="358" y="312" type="curve"/>
      <point x="372" y="358"/>
      <point x="399" y="380"/>
    </contour>
    <contour>
      <point x="250" y="146" type="curve" smooth="yes"/>
      <point x="250" y="90" type="line"/>
      <point x="220" y="62"/>
      <point x="195" y="51"/>
      <point x="174" y="51" type="curve" smooth="yes"/>
      <point x="147" y="51"/>
      <point x="130" y="66"/>
      <point x="130" y="93" type="curve" smooth="yes"/>
      <point x="130" y="117"/>
      <point x="139" y="129"/>
      <point x="193" y="147" type="curve" smooth="yes"/>
      <point x="215" y="154"/>
      <point x="231" y="161"/>
      <point x="243" y="166" type="curve"/>
      <point x="250" y="170"/>
      <point x="250" y="158"/>
    </contour>
  </outline>
</glyph>
<glyph name="oacute" format="2">
  <advance width="500"/>
  <unicode hex="00F3"/>
  <outline>
    <contour>
      <point x="394" y="656" type="line" smooth="yes"/>
      <point x="394" y="657"/>
      <point x="395" y="659"/>
      <point x="395" y="661" type="curve"/>
      <point x="398" y="675"/>
      <point x="384" y="681"/>
      <point x="371" y="681" type="curve" smooth="yes"/>
      <point x="284" y="681" type="line" smooth="yes"/>
      <point x="274" y="681"/>
      <point x="263" y="673"/>
      <point x="257" y="662" type="curve"/>
      <point x="209" y="502" type="line" smooth="yes"/>
      <point x="201" y="475"/>
      <point x="240" y="472"/>
      <point x="252" y="483" type="curve"/>
      <point x="252" y="483"/>
      <point x="393" y="652"/>
      <point x="394" y="655" type="curve"/>
    </contour>
    <contour>
      <point x="253" y="-15" type="curve" smooth="yes"/>
      <point x="382" y="-15"/>
      <point x="482" y="84"/>
      <point x="483" y="210" type="curve" smooth="yes"/>
      <point x="484" y="339"/>
      <point x="382" y="437"/>
      <point x="250" y="437" type="curve" smooth="yes"/>
      <point x="119" y="437"/>
      <point x="20" y="340"/>
      <point x="20" y="211" type="curve" smooth="yes"/>
      <point x="20" y="82"/>
      <point x="121" y="-15"/>
    </contour>
    <contour>
      <point x="236" y="382" type="curve" smooth="yes"/>
      <point x="308" y="382"/>
      <point x="375" y="296"/>
      <point x="375" y="186" type="curve" smooth="yes"/>
      <point x="375" y="98"/>
      <point x="325" y="41"/>
      <point x="265" y="41" type="curve" smooth="yes"/>
      <point x="192" y="41"/>
      <point x="126" y="125"/>
      <point x="126" y="242" type="curve" smooth="yes"/>
      <point x="126" y="325"/>
      <point x="176" y="382"/>
    </contour>
  </outline>
</glyph>
<glyph name="yacute" format="2">
  <advance width="490"/>
  <unicode hex="00FD"/>
  <outline>
    <contour>
      <point x="374" y="666" type="line"/>
      <point x="374" y="667"/>
      <point x="374" y="669"/>
      <point x="375" y="670" type="curve"/>
      <point x="378" y="685"/>
      <point x="364" y="691"/>
      <point x="351" y="691" type="curve" smooth="yes"/>
      <point x="264" y="691" type="line" smooth="yes"/>
      <point x="252" y="691"/>
      <point x="242" y="683"/>
      <point x="236" y="672" type="curve"/>
      <point x="188" y="511" type="line" smooth="yes"/>
      <point x="180" y="483"/>
      <point x="219" y="480"/>
      <point x="231" y="492" type="curve"/>
      <point x="231" y="492"/>
      <point x="372" y="662"/>
      <point x="373" y="665" type="curve"/>
    </contour>
    <contour>
      <point x="278" y="136" type="line" smooth="yes"/>
      <point x="274" y="125"/>
      <point x="270" y="121"/>
      <point x="267" y="128" type="curve" smooth="yes"/>
      <point x="240" y="196"/>
      <point x="218" y="259"/>
      <point x="188" y="326" type="curve" smooth="yes"/>
      <point x="183" y="336"/>
      <point x="169" y="361"/>
      <point x="187" y="366" type="curve"/>
      <point x="196" y="369"/>
      <point x="209" y="369"/>
      <point x="217" y="369" type="curve"/>
      <point x="234" y="373"/>
      <point x="244" y="420"/>
      <point x="208" y="419" type="curve" smooth="yes"/>
      <point x="179" y="419"/>
      <point x="92" y="419"/>
      <point x="43" y="419" type="curve" smooth="yes"/>
      <point x="41" y="419"/>
      <point x="33" y="419"/>
      <point x="31" y="419" type="curve" smooth="yes"/>
      <point x="-4" y="420"/>
      <point x="6" y="373"/>
      <point x="22" y="370" type="curve"/>
      <point x="63" y="366"/>
      <point x="65" y="366"/>
      <point x="99" y="284" type="curve" smooth="yes"/>
      <point x="218" y="-5" type="line"/>
      <point x="207" y="-67"/>
      <point x="201" y="-137"/>
      <point x="128" y="-156" type="curve" smooth="yes"/>
      <point x="97" y="-165"/>
      <point x="70" y="-177"/>
      <point x="70" y="-207" type="curve" smooth="yes"/>
      <point x="70" y="-236"/>
      <point x="98" y="-264"/>
      <point x="128" y="-264" type="curve" smooth="yes"/>
      <point x="147" y="-264"/>
      <point x="171" y="-256"/>
      <point x="185" y="-240" type="curve"/>
      <point x="199" y="-222"/>
      <point x="210" y="-204"/>
      <point x="221" y="-178" type="curve" smooth="yes"/>
      <point x="233" y="-152"/>
      <point x="246" y="-120"/>
      <point x="263" y="-74" type="curve" smooth="yes"/>
      <point x="382" y="250" type="line" smooth="yes"/>
      <point x="421" y="356"/>
      <point x="437" y="367"/>
      <point x="468" y="369" type="curve"/>
      <point x="473" y="370"/>
      <point x="479" y="371"/>
      <point x="482" y="378" type="curve" smooth="yes"/>
      <point x="488" y="393"/>
      <point x="486" y="419"/>
      <point x="461" y="419" type="curve" smooth="yes"/>
      <point x="408" y="419"/>
      <point x="372" y="418"/>
      <point x="314" y="418" type="curve" smooth="yes"/>
      <point x="311" y="418"/>
      <point x="308" y="419"/>
      <point x="304" y="418" type="curve"/>
      <point x="280" y="414"/>
      <point x="290" y="375"/>
      <point x="301" y="369" type="curve"/>
      <point x="347" y="369"/>
      <point x="350" y="362"/>
      <point x="350" y="345" type="curve" smooth="yes"/>
      <point x="350" y="326"/>
      <point x="334" y="287"/>
      <point x="327" y="269" type="curve" smooth="yes"/>
    </contour>
  </outline>
</glyph>
<glyph name="dotlessi" format="2">
  <advance width="273"/>
  <unicode hex="0131"/>
  <outline>
    <contour>
      <point x="238" y="-2" type="curve" smooth="yes"/>
      <point x="245" y="-2"/>
      <point x="253" y="12"/>
      <point x="254" y="22" type="curve"/>
      <point x="254" y="29"/>
      <point x="253" y="45"/>
      <point x="239" y="49" type="curve"/>
      <point x="228" y="49" type="line" smooth="yes"/>
      <point x="193" y="49"/>
      <point x="192" y="50"/>
      <point x="190" y="80" type="curve" smooth="yes"/>
      <point x="189" y="93"/>
      <point x="189" y="110"/>
      <point x="189" y="129" type="curve" smooth="yes"/>
      <point x="189" y="416" type="line" smooth="yes"/>
      <point x="189" y="437"/>
      <point x="176" y="445"/>
      <point x="156" y="438" type="curve" smooth="yes"/>
      <point x="34" y="396" type="line"/>
      <point x="24" y="389"/>
      <point x="18" y="360"/>
      <point x="36" y="353" type="curve"/>
      <point x="50" y="349"/>
      <point x="62" y="346"/>
      <point x="77" y="343" type="curve"/>
      <point x="80" y="342"/>
      <point x="90" y="341"/>
      <point x="92" y="338" type="curve"/>
      <point x="94" y="334"/>
      <point x="94" y="325"/>
      <point x="94" y="300" type="curve" smooth="yes"/>
      <point x="94" y="129" type="line" smooth="yes"/>
      <point x="94" y="54"/>
      <point x="95" y="49"/>
      <point x="47" y="49" type="curve" smooth="yes"/>
      <point x="35" y="49" type="line" smooth="yes"/>
      <point x="21" y="49"/>
      <point x="17" y="32"/>
      <point x="18" y="21" type="curve" smooth="yes"/>
      <point x="19" y="10"/>
      <point x="28" y="-2"/>
      <point x="37" y="-2" type="curve" smooth="yes"/>
      <point x="101" y="-1"/>
      <point x="189" y="-1"/>
    </contour>
  </outline>
</glyph>
<glyph name="quotedblleft" format="2">
  <advance width="502"/>
  <unicode hex="201C"/>
  <outline>
    <contour>
      <point x="378" y="452" type="curve" smooth="yes"/>
      <point x="415" y="452"/>
      <point x="445" y="478"/>
      <point x="445" y="513" type="curve" smooth="yes"/>
      <point x="445" y="544"/>
      <point x="422" y="570"/>
      <point x="388" y="570" type="curve" smooth="yes"/>
      <point x="383" y="570"/>
      <point x="378" y="568"/>
      <point x="372" y="567" type="curve"/>
      <point x="370" y="567"/>
      <point x="366" y="565"/>
      <point x="366" y="570" type="curve" smooth="yes"/>
      <point x="366" y="594"/>
      <point x="387" y="625"/>
      <point x="434" y="650" type="curve" smooth="yes"/>
      <point x="451" y="659"/>
      <point x="445" y="678"/>
      <point x="440" y="685" type="curve"/>
      <point x="430" y="696"/>
      <point x="416" y="691"/>
      <point x="408" y="688" type="curve" smooth="yes"/>
      <point x="340" y="661"/>
      <point x="293" y="604"/>
      <point x="293" y="542" type="curve" smooth="yes"/>
      <point x="293" y="493"/>
      <point x="328" y="452"/>
    </contour>
    <contour>
      <point x="160" y="452" type="curve" smooth="yes"/>
      <point x="196" y="452"/>
      <point x="227" y="478"/>
      <point x="227" y="513" type="curve" smooth="yes"/>
      <point x="227" y="544"/>
      <point x="203" y="570"/>
      <point x="170" y="570" type="curve" smooth="yes"/>
      <point x="164" y="570"/>
      <point x="160" y="569"/>
      <point x="154" y="568" type="curve"/>
      <point x="151" y="568"/>
      <point x="148" y="567"/>
      <point x="148" y="570" type="curve" smooth="yes"/>
      <point x="148" y="594"/>
      <point x="169" y="624"/>
      <point x="216" y="650" type="curve" smooth="yes"/>
      <point x="237" y="662"/>
      <point x="221" y="701"/>
      <point x="190" y="688" type="curve" smooth="yes"/>
      <point x="122" y="661"/>
      <point x="75" y="604"/>
      <point x="75" y="542" type="curve" smooth="yes"/>
      <point x="75" y="493"/>
      <point x="109" y="452"/>
    </contour>
  </outline>
</glyph>
<glyph name="trademark" format="2">
  <advance width="1025"/>
  <unicode hex="2122"/>
  <outline>
    <contour>
      <point x="723" y="453" type="curve"/>
      <point x="612" y="681" type="line" smooth="yes"/>
      <point x="608" y="689"/>
      <point x="601" y="701"/>
      <point x="585" y="700" type="curve" smooth="yes"/>
      <point x="554" y="699"/>
      <point x="486" y="700"/>
      <point x="456" y="701" type="curve" smooth="yes"/>
      <point x="442" y="701"/>
      <point x="432" y="698"/>
      <point x="432" y="678" type="curve" smooth="yes"/>
      <point x="432" y="669"/>
      <point x="432" y="669"/>
      <point x="435" y="660" type="curve"/>
      <point x="439" y="654"/>
      <point x="446" y="651"/>
      <point x="457" y="651" type="curve" smooth="yes"/>
      <point x="488" y="651"/>
      <point x="489" y="647"/>
      <point x="489" y="600" type="curve" smooth="yes"/>
      <point x="489" y="374" type="line" smooth="yes"/>
      <point x="489" y="328"/>
      <point x="486" y="327"/>
      <point x="456" y="326" type="curve"/>
      <point x="447" y="325"/>
      <point x="432" y="322"/>
      <point x="432" y="303" type="curve" smooth="yes"/>
      <point x="432" y="293" type="line" smooth="yes"/>
      <point x="432" y="276"/>
      <point x="451" y="276"/>
      <point x="463" y="278" type="curve"/>
      <point x="483" y="279"/>
      <point x="577" y="282"/>
      <point x="594" y="276" type="curve"/>
      <point x="605" y="276" type="line"/>
      <point x="616" y="280"/>
      <point x="618" y="301"/>
      <point x="618" y="311" type="curve" smooth="yes"/>
      <point x="618" y="324"/>
      <point x="606" y="326"/>
      <point x="599" y="326" type="curve" smooth="yes"/>
      <point x="584" y="326" type="line" smooth="yes"/>
      <point x="557" y="326"/>
      <point x="553" y="329"/>
      <point x="553" y="375" type="curve" smooth="yes"/>
      <point x="553" y="533" type="line" smooth="yes"/>
      <point x="553" y="545"/>
      <point x="556" y="537"/>
      <point x="559" y="530" type="curve" smooth="yes"/>
      <point x="674" y="291" type="line"/>
      <point x="677" y="284" type="line"/>
      <point x="681" y="277"/>
      <point x="683" y="278"/>
      <point x="690" y="278" type="curve" smooth="yes"/>
      <point x="704" y="278" type="line" smooth="yes"/>
      <point x="714" y="278"/>
      <point x="720" y="283"/>
      <point x="726" y="295" type="curve" smooth="yes"/>
      <point x="841" y="536" type="line" smooth="yes"/>
      <point x="843" y="540"/>
      <point x="846" y="542"/>
      <point x="846" y="538" type="curve" smooth="yes"/>
      <point x="846" y="374" type="line" smooth="yes"/>
      <point x="846" y="332"/>
      <point x="842" y="329"/>
      <point x="813" y="327" type="curve"/>
      <point x="810" y="326"/>
      <point x="807" y="327"/>
      <point x="804" y="327" type="curve" smooth="yes"/>
      <point x="796" y="327"/>
      <point x="785" y="326"/>
      <point x="785" y="312" type="curve" smooth="yes"/>
      <point x="785" y="297" type="line" smooth="yes"/>
      <point x="785" y="281"/>
      <point x="797" y="277"/>
      <point x="820" y="278" type="curve" smooth="yes"/>
      <point x="863" y="280"/>
      <point x="948" y="278"/>
      <point x="991" y="278" type="curve" smooth="yes"/>
      <point x="1009" y="278"/>
      <point x="1017" y="284"/>
      <point x="1017" y="300" type="curve" smooth="yes"/>
      <point x="1017" y="312"/>
      <point x="1017" y="326"/>
      <point x="1001" y="326" type="curve" smooth="yes"/>
      <point x="998" y="326"/>
      <point x="996" y="326"/>
      <point x="993" y="327" type="curve"/>
      <point x="963" y="329"/>
      <point x="962" y="333"/>
      <point x="962" y="375" type="curve" smooth="yes"/>
      <point x="962" y="601" type="line" smooth="yes"/>
      <point x="962" y="649"/>
      <point x="966" y="650"/>
      <point x="991" y="651" type="curve" smooth="yes"/>
      <point x="995" y="651"/>
      <point x="998" y="651"/>
      <point x="1002" y="652" type="curve"/>
      <point x="1016" y="654"/>
      <point x="1017" y="666"/>
      <point x="1017" y="677" type="curve" smooth="yes"/>
      <point x="1017" y="699"/>
      <point x="1003" y="701"/>
      <point x="987" y="701" type="curve" smooth="yes"/>
      <point x="955" y="701"/>
      <point x="901" y="700"/>
      <point x="866" y="701" type="curve" smooth="yes"/>
      <point x="854" y="701"/>
      <point x="848" y="694"/>
      <point x="842" y="680" type="curve" smooth="yes"/>
      <point x="731" y="445" type="line"/>
      <point x="731" y="445"/>
      <point x="727" y="443"/>
    </contour>
    <contour>
      <point x="429" y="592" type="curve"/>
      <point x="429" y="595"/>
      <point x="429" y="598"/>
      <point x="429" y="601" type="curve"/>
      <point x="421" y="672" type="line" smooth="yes"/>
      <point x="418" y="698"/>
      <point x="407" y="702"/>
      <point x="384" y="701" type="curve" smooth="yes"/>
      <point x="296" y="699"/>
      <point x="130" y="699"/>
      <point x="52" y="701" type="curve" smooth="yes"/>
      <point x="33" y="701"/>
      <point x="24" y="696"/>
      <point x="21" y="676" type="curve" smooth="yes"/>
      <point x="12" y="605" type="line" smooth="yes"/>
      <point x="8" y="576"/>
      <point x="11" y="572"/>
      <point x="32" y="572" type="curve" smooth="yes"/>
      <point x="58" y="572" type="line"/>
      <point x="68" y="629"/>
      <point x="84" y="641"/>
      <point x="139" y="641" type="curve" smooth="yes"/>
      <point x="152" y="641"/>
      <point x="161" y="642"/>
      <point x="161" y="633" type="curve" smooth="yes"/>
      <point x="161" y="374" type="line" smooth="yes"/>
      <point x="161" y="334"/>
      <point x="160" y="330"/>
      <point x="131" y="326" type="curve"/>
      <point x="129" y="326"/>
      <point x="128" y="326"/>
      <point x="125" y="326" type="curve"/>
      <point x="110" y="322"/>
      <point x="111" y="314"/>
      <point x="111" y="302" type="curve" smooth="yes"/>
      <point x="111" y="281"/>
      <point x="120" y="277"/>
      <point x="142" y="278" type="curve" smooth="yes"/>
      <point x="175" y="278"/>
      <point x="253" y="280"/>
      <point x="302" y="278" type="curve" smooth="yes"/>
      <point x="305" y="278"/>
      <point x="310" y="277"/>
      <point x="314" y="278" type="curve"/>
      <point x="338" y="279"/>
      <point x="332" y="320"/>
      <point x="324" y="324" type="curve"/>
      <point x="319" y="326"/>
      <point x="316" y="326"/>
      <point x="311" y="327" type="curve"/>
      <point x="275" y="330"/>
      <point x="278" y="339"/>
      <point x="278" y="375" type="curve" smooth="yes"/>
      <point x="278" y="632" type="line" smooth="yes"/>
      <point x="278" y="644"/>
      <point x="291" y="641"/>
      <point x="299" y="641" type="curve" smooth="yes"/>
      <point x="357" y="641"/>
      <point x="374" y="628"/>
      <point x="382" y="572" type="curve"/>
      <point x="406" y="572" type="line" smooth="yes"/>
      <point x="424" y="572"/>
      <point x="431" y="571"/>
    </contour>
  </outline>
</glyph>
<glyph name="fi" format="2">
  <advance width="559"/>
  <outline>
    <contour>
      <point x="512" y="-4" type="curve"/>
      <point x="529" y="4"/>
      <point x="536" y="41"/>
      <point x="512" y="45" type="curve" smooth="yes"/>
      <point x="492" y="48" type="line" smooth="yes"/>
      <point x="465" y="51"/>
      <point x="464" y="54"/>
      <point x="464" y="120" type="curve" smooth="yes"/>
      <point x="464" y="281" type="line" smooth="yes"/>
      <point x="464" y="321"/>
      <point x="466" y="367"/>
      <point x="468" y="405" type="curve"/>
      <point x="458" y="422"/>
      <point x="447" y="420"/>
      <point x="432" y="414" type="curve"/>
      <point x="418" y="412"/>
      <point x="399" y="410"/>
      <point x="379" y="409" type="curve" smooth="yes"/>
      <point x="324" y="406"/>
      <point x="267" y="405"/>
      <point x="212" y="407" type="curve" smooth="yes"/>
      <point x="201" y="407"/>
      <point x="199" y="411"/>
      <point x="198" y="413" type="curve"/>
      <point x="196" y="418"/>
      <point x="196" y="428"/>
      <point x="196" y="435" type="curve" smooth="yes"/>
      <point x="196" y="587"/>
      <point x="230" y="656"/>
      <point x="294" y="656" type="curve" smooth="yes"/>
      <point x="313" y="656"/>
      <point x="347" y="642"/>
      <point x="374" y="597" type="curve" smooth="yes"/>
      <point x="381" y="586"/>
      <point x="392" y="577"/>
      <point x="410" y="577" type="curve" smooth="yes"/>
      <point x="427" y="577"/>
      <point x="461" y="590"/>
      <point x="461" y="628" type="curve" smooth="yes"/>
      <point x="461" y="679"/>
      <point x="396" y="715"/>
      <point x="329" y="715" type="curve" smooth="yes"/>
      <point x="213" y="715"/>
      <point x="151" y="629"/>
      <point x="130" y="578" type="curve" smooth="yes"/>
      <point x="107" y="524"/>
      <point x="99" y="467"/>
      <point x="99" y="410" type="curve" smooth="yes"/>
      <point x="99" y="395"/>
      <point x="59" y="392"/>
      <point x="47" y="382" type="curve"/>
      <point x="30" y="370"/>
      <point x="42" y="347"/>
      <point x="53" y="341" type="curve"/>
      <point x="88" y="338" type="line" smooth="yes"/>
      <point x="96" y="337"/>
      <point x="99" y="337"/>
      <point x="99" y="322" type="curve" smooth="yes"/>
      <point x="99" y="120" type="line" smooth="yes"/>
      <point x="99" y="54"/>
      <point x="99" y="51"/>
      <point x="72" y="48" type="curve"/>
      <point x="48" y="44" type="line"/>
      <point x="32" y="36"/>
      <point x="32" y="19"/>
      <point x="36" y="10" type="curve"/>
      <point x="41" y="-4"/>
      <point x="51" y="-5"/>
      <point x="61" y="-4" type="curve" smooth="yes"/>
      <point x="88" y="-2"/>
      <point x="113" y="-1"/>
      <point x="145" y="-1" type="curve" smooth="yes"/>
      <point x="179" y="-1"/>
      <point x="208" y="-2"/>
      <point x="250" y="-4" type="curve"/>
      <point x="264" y="0"/>
      <point x="279" y="42"/>
      <point x="252" y="45" type="curve" smooth="yes"/>
      <point x="222" y="48" type="line" smooth="yes"/>
      <point x="197" y="50"/>
      <point x="196" y="54"/>
      <point x="196" y="120" type="curve" smooth="yes"/>
      <point x="196" y="322" type="line" smooth="yes"/>
      <point x="196" y="338"/>
      <point x="198" y="339"/>
      <point x="207" y="340" type="curve"/>
      <point x="235" y="341"/>
      <point x="303" y="341"/>
      <point x="332" y="340" type="curve" smooth="yes"/>
      <point x="365" y="339"/>
      <point x="367" y="336"/>
      <point x="367" y="288" type="curve" smooth="yes"/>
      <point x="367" y="120" type="line" smooth="yes"/>
      <point x="367" y="108"/>
      <point x="368" y="70"/>
      <point x="364" y="58" type="curve" smooth="yes"/>
      <point x="362" y="51"/>
      <point x="358" y="50"/>
      <point x="342" y="48" type="curve"/>
      <point x="338" y="47"/>
      <point x="333" y="47"/>
      <point x="329" y="46" type="curve" smooth="yes"/>
      <point x="310" y="42"/>
      <point x="303" y="32"/>
      <point x="309" y="12" type="curve"/>
      <point x="313" y="1"/>
      <point x="319" y="-3"/>
      <point x="330" y="-3" type="curve"/>
      <point x="359" y="0"/>
      <point x="388" y="-2"/>
      <point x="417" y="-2" type="curve" smooth="yes"/>
      <point x="451" y="-2"/>
      <point x="480" y="-2"/>
    </contour>
  </outline>
</glyph>
